:SAMPLES-PER-SECOND 30
:FULLY-SPECIFIED
:DEGREES
900
root  81.4962 39.1808 0.0315753 -164.193 -57.1993 168.339
RightUpLeg  -5.40696 -15.5309 -11.0414
RightLeg  11.0381 -20.3536 0.606351
RightFoot  -8.61896 -0.153323 3.9913
RightToes  -8.3237e-009 0 -3.6325e-017
Spine  7.43566 2.06511 11.7482
Spine1  -0.208423 4.18146 -9.1774
HEad  -8.8478 -9.59245 -18.6663
LeftShoulder1  -0.603224 5.07808 -32.1661
LeftArm  7.77505 12.1291 -41.1288
LeftForeArm  21.2735 -18.6968 -5.51227
LeftHand  -0.308255 -2.02278 4.92103
RightShoulder  -0.757487 -5.65605 28.5518
RightArm  25.9009 -0.00665342 41.0817
RightForeArm  11.6342 12.3812 8.47189
RightHand  -0.0786437 4.5966 -1.21768
LeftUpLeg  -17.179 5.48519 -4.80374
LeftLeg  17.1527 -1.65322 -0.245348
LeftFoot  -4.15084 0.237723 -3.4024
LeftToes  -1.18267e-011 3.61711e-011 9.57411e-011
901
root  81.5028 39.2241 -0.0126345 -161.979 -60.2927 166.412
RightUpLeg  -4.94931 -15.8263 -11.4003
RightLeg  10.8306 -23.1067 0.533509
RightFoot  -8.19831 -0.160184 3.80572
RightToes  -8.3237e-009 0 -3.6325e-017
Spine  7.73452 2.22059 11.504
Spine1  -0.655514 4.34275 -9.3599
HEad  -7.86227 -12.8098 -18.6895
LeftShoulder1  -0.634028 5.1518 -32.3217
LeftArm  7.81069 12.7826 -40.6808
LeftForeArm  24.1085 -17.8784 -5.9449
LeftHand  -0.0159134 3.19525 1.60474
RightShoulder  -0.774208 -5.70703 28.5035
RightArm  27.8093 0.402654 42.2245
RightForeArm  9.55081 13.9764 7.97709
RightHand  -0.0370356 5.38114 -0.712868
LeftUpLeg  -17.3591 5.64443 -5.61935
LeftLeg  15.6041 -2.1701 -0.394036
LeftFoot  -3.8445 0.256089 -3.62575
LeftToes  -1.18267e-011 3.61711e-011 9.57411e-011
902
root  81.3297 39.2309 -0.031232 -159.355 -63.5726 163.934
RightUpLeg  -4.09075 -16.5476 -12.1309
RightLeg  10.8673 -25.8595 0.607396
RightFoot  -8.02246 -0.170183 3.98018
RightToes  -8.3237e-009 0 -3.6325e-017
Spine  7.11925 2.00134 11.5891
Spine1  -0.24617 4.16509 -9.76813
HEad  -7.52987 -15.3601 -18.2822
LeftShoulder1  -0.640834 5.16984 -32.3134
LeftArm  6.89544 13.8246 -40.0654
LeftForeArm  25.8107 -16.4295 -6.75207
LeftHand  -0.0813954 7.04232 2.13572
RightShoulder  -0.812029 -5.80278 28.7048
RightArm  30.1247 1.07328 43.3181
RightForeArm  6.77289 15.9638 7.22448
RightHand  -0.0808157 5.24623 -1.1905
LeftUpLeg  -17.0761 5.64266 -6.46665
LeftLeg  13.2844 -0.756061 -0.29458
LeftFoot  -3.89503 0.273684 -3.8404
LeftToes  -1.18267e-011 3.61711e-011 9.57411e-011
903
root  81.131 39.273 -0.0638982 -157.657 -65.8315 162.278
RightUpLeg  -2.91793 -16.5382 -12.3273
RightLeg  10.0049 -28.4278 0.77289
RightFoot  -7.64174 -0.193464 4.38889
RightToes  -8.3237e-009 0 -3.6325e-017
Spine  6.80181 2.18469 11.5169
Spine1  0.308314 4.44593 -10.0796
HEad  -6.90103 -17.6073 -18.1105
LeftShoulder1  -0.609432 5.08884 -32.2951
LeftArm  5.5081 14.5796 -39.9267
LeftForeArm  25.5681 -16.532 -6.47234
LeftHand  -0.302562 11.8483 -4.61867
RightShoulder  -0.77069 -5.70082 28.4458
RightArm  31.3888 1.15111 44.3859
RightForeArm  4.21575 18.5898 5.98051
RightHand  -0.104707 6.19426 -1.38504
LeftUpLeg  -16.3437 4.95736 -6.48006
LeftLeg  10.3619 4.11954 -0.237917
LeftFoot  -3.68308 0.255194 -3.4859
LeftToes  -1.18267e-011 3.61711e-011 9.57411e-011
904
root  80.8677 39.2905 -0.0747569 -155.623 -67.7752 160.562
RightUpLeg  -1.81767 -16.6266 -12.5325
RightLeg  8.58501 -31.0195 1.44932
RightFoot  -7.36587 -0.194008 4.14142
RightToes  -8.3237e-009 0 -3.6325e-017
Spine  5.98404 2.31295 11.2827
Spine1  1.08515 4.65803 -10.5416
HEad  -6.61964 -19.5532 -17.2937
LeftShoulder1  -0.581379 5.02288 -32.12
LeftArm  2.9141 15.3942 -40.0392
LeftForeArm  28.077 -15.0905 -6.94514
LeftHand  -0.174945 9.82667 -2.92947
RightShoulder  -0.757068 -5.65643 28.5221
RightArm  31.462 1.81615 45.3536
RightForeArm  2.65491 20.525 5.22705
RightHand  -0.10384 5.97463 -1.38901
LeftUpLeg  -15.9495 3.09136 -6.21557
LeftLeg  7.41752 10.7186 -0.643234
LeftFoot  -3.10707 0.235541 -3.01254
LeftToes  -1.18267e-011 3.61711e-011 9.57411e-011
905
root  80.5327 39.2481 -0.0746359 -154.868 -69.7906 160.122
RightUpLeg  -0.959887 -16.5282 -12.2996
RightLeg  8.39434 -32.8723 1.61467
RightFoot  -7.39859 -0.212069 4.69907
RightToes  -8.3237e-009 0 -3.6325e-017
Spine  5.7718 2.35797 10.8764
Spine1  0.866104 4.54363 -9.96323
HEad  -5.81265 -21.0144 -17.1107
LeftShoulder1  -0.640094 5.16599 -32.3624
LeftArm  2.0711 16.6338 -39.6384
LeftForeArm  28.6817 -14.349 -7.21833
LeftHand  -0.0944341 8.52945 -1.64414
RightShoulder  -0.826392 -5.83952 28.7725
RightArm  30.8578 2.31091 45.9229
RightForeArm  2.56528 22.4109 4.9041
RightHand  -0.128463 6.50766 -1.59602
LeftUpLeg  -15.5971 1.84391 -5.64987
LeftLeg  4.88438 15.8676 -1.2884
LeftFoot  -2.8488 0.227628 -2.80318
LeftToes  -1.18267e-011 3.61711e-011 9.57411e-011
906
root  80.1453 39.1607 -0.0575893 -155.371 -71.7019 160.92
RightUpLeg  -0.237637 -16.3953 -11.7523
RightLeg  8.78839 -34.2945 1.54129
RightFoot  -7.5728 -0.233054 5.50547
RightToes  -8.3237e-009 0 -3.6325e-017
Spine  5.19015 2.70178 10.359
Spine1  1.1228 4.64695 -8.85693
HEad  -5.32197 -22.7828 -16.5528
LeftShoulder1  -0.598188 5.04959 -32.5454
LeftArm  1.08855 17.485 -39.8491
LeftForeArm  30.679 -13.6697 -7.37614
LeftHand  -0.126282 9.07203 -2.70389
RightShoulder  -0.792515 -5.74895 28.673
RightArm  28.3257 2.13263 46.0917
RightForeArm  3.32092 24.5462 5.05481
RightHand  -0.140285 6.52951 -1.7097
LeftUpLeg  -15.4365 1.85813 -5.05115
LeftLeg  3.40264 18.175 -1.94186
LeftFoot  -2.08555 0.169818 -2.0997
LeftToes  -1.18267e-011 3.61711e-011 9.57411e-011
